<?xml version="1.0" encoding="utf-8"?><svg viewBox="0 0 157 46" xmlns="http://www.w3.org/2000/svg" xmlns:xlink="http://www.w3.org/1999/xlink"><style>:root>svg{display:none}:root>svg:target{display:block}</style><svg fill="none" viewBox="0 0 13 14" id="arrow-right" xmlns="http://www.w3.org/2000/svg"><path d="M9.75 7a1.083 1.083 0 00-.32-.758l-2.323-2.33a.542.542 0 10-.764.77l1.782 1.776H2.71a.542.542 0 000 1.084h5.416L6.343 9.324a.542.542 0 10.764.769l2.324-2.33c.203-.201.318-.476.32-.763z" fill="currentColor" opacity=".5"/></svg><svg fill="none" viewBox="0 0 17 22" id="calculator" xmlns="http://www.w3.org/2000/svg"><path fill-rule="evenodd" clip-rule="evenodd" d="M2.472.51L14.493.5l.618.275c.412.186.746.432 1.03.765.295.334.482.677.619 1.119.186.618.186.932.167 8.537-.03 7.183-.05 7.939-.197 8.341-.098.246-.363.658-.588.923-.285.334-.618.579-1.649 1.04H2.521l-.608-.275a2.816 2.816 0 01-1.04-.765 2.906 2.906 0 01-.619-1.119c-.186-.618-.186-.932-.166-8.537.029-7.183.049-7.939.196-8.341.098-.246.363-.658.589-.923a2.943 2.943 0 011.01-.755l.59-.275zm-.589 2.247c-.127.255-.147 1.374-.147 8.243 0 6.87.02 7.988.147 8.243.089.177.314.373.57.49.392.187.637.187 6.054.187s5.662 0 6.065-.186c.245-.118.47-.314.559-.491.128-.255.147-1.374.147-8.243 0-6.87-.02-7.988-.147-8.243-.088-.177-.314-.373-.57-.49-.392-.187-.637-.197-6.054-.197s-5.662.01-6.064.196c-.246.118-.471.314-.56.491zm2.189 1.472l8.9.01.726.726v4.22l-.755.736-8.9-.01-.727-.726.01-4.2.746-.756zm.814 4.121h7.262V5.8H4.886v2.55zm-.324 3.15c.069-.01.305.07.53.167.226.098.481.305.589.462.098.166.177.47.186.686 0 .256-.078.52-.225.736a1.229 1.229 0 01-.638.491c-.373.137-.461.137-.824 0a1.215 1.215 0 01-.648-.49 1.365 1.365 0 01-.226-.707c.01-.206.089-.51.177-.677.098-.177.343-.383.569-.49.216-.099.442-.178.51-.178zm3.926 0c.068-.01.304.07.53.167.225.098.48.305.588.462.098.166.177.47.187.686 0 .256-.079.52-.226.736a1.229 1.229 0 01-.638.491c-.373.137-.461.137-.824 0a1.215 1.215 0 01-.648-.49 1.365 1.365 0 01-.226-.707c.01-.206.089-.51.177-.677.098-.177.344-.383.57-.49.215-.099.44-.178.51-.178zm3.925 0c.069-.01.304.07.53.167.225.098.49.305.588.462.167.274.187.49.138 4.955l-.324.324c-.294.284-.373.314-.913.314-.569 0-.618-.02-1.266-.736v-2.257c0-1.963.02-2.296.167-2.561.098-.177.344-.383.57-.49.215-.099.441-.178.51-.178zm-7.831 3.72c.432 0 .55.049.863.343.354.314.373.363.373.922 0 .55-.03.629-.323.923-.295.284-.373.314-.913.314-.57 0-.618-.02-.932-.363-.295-.324-.334-.432-.324-.874.01-.441.059-.549.383-.883.333-.343.412-.382.873-.382zm3.925 0c.432 0 .55.049.864.343.353.314.373.363.373.922 0 .55-.03.629-.324.923-.295.284-.373.314-.913.314-.569 0-.618-.02-.932-.363-.294-.324-.334-.432-.324-.874.01-.441.059-.549.383-.883.333-.343.412-.382.873-.382z" fill="currentColor"/></svg><svg fill="none" viewBox="0 0 10 7" id="chevron" xmlns="http://www.w3.org/2000/svg"><path d="M1.2 1.5l4 4 4-4" stroke="currentColor" stroke-width="1.2" stroke-linecap="round" stroke-linejoin="round"/></svg><svg fill="none" viewBox="0 0 23 22" id="design" xmlns="http://www.w3.org/2000/svg"><path fill-rule="evenodd" clip-rule="evenodd" d="M.517.51L6.567.5l.47.496v17.732l-.207.515c-.112.29-.412.749-.702 1.067a3.577 3.577 0 01-1.152.862c-.572.272-.75.319-1.377.319-.6 0-.834-.047-1.312-.263a5.404 5.404 0 01-.946-.534 4.571 4.571 0 01-.618-.655 4.96 4.96 0 01-.468-.89c-.197-.515-.197-.59-.187-18.18l.45-.46zm1.04 9.722c0 7.737.01 8.233.168 8.59.094.205.328.514.516.683.187.16.505.347.693.393.196.056.505.094.683.094.178 0 .562-.112.843-.253.384-.197.581-.375.797-.721l.28-.46.047-16.55H1.557v8.224zm11.849 4.234l8.177.056.496.468-.056 6.023-.468.487H6.38l.421-.45c.234-.243.506-.58.796-1.058l6.978.01-.046-3.982-2.623-.056 1.499-1.498zM16.076 20h4.495l-.047-3.98-4.449-.047V20zM14.154 2.767c.244 0 .6.318 2.454 2.173 1.873 1.873 2.182 2.22 2.182 2.463 0 .244-.655.928-5.32 5.592-2.922 2.923-5.339 5.32-5.386 5.32-.037 0-.065-.44-.065-1.92l4.73-4.73-2.857-2.857-.862.862c-.477.478-.899.862-.946.862-.037.009-.056-.431-.028-1.92l2.913-2.923c2.52-2.529 2.95-2.922 3.185-2.922zM10.97 7.73l2.857 2.857c2.398-2.398 3.091-3.138 3.091-3.185 0-.056-.6-.702-1.33-1.433-.74-.73-1.386-1.33-1.433-1.33-.056 0-.787.693-1.64 1.546L10.97 7.73zm-7.306 9.31c.216.029.469.141.59.263.113.112.235.356.263.543a.91.91 0 01-.094.609c-.084.15-.253.328-.384.393a1.5 1.5 0 01-.562.122c-.244 0-.403-.084-.609-.281-.206-.206-.28-.375-.28-.609 0-.187.037-.43.093-.543.056-.113.215-.29.356-.375.178-.122.365-.159.627-.122z" fill="currentColor"/></svg><svg fill="none" viewBox="0 0 157 46" id="flag" xmlns="http://www.w3.org/2000/svg"><path d="M152 .5a4.5 4.5 0 014.5 4.5v36a4.5 4.5 0 01-4.5 4.5H5.337c-3.763 0-5.864-4.343-3.528-7.294l9.337-11.792a5.5 5.5 0 000-6.828L1.809 7.793C-.527 4.843 1.574.5 5.337.5H152z" stroke="currentColor"/></svg><svg fill="none" viewBox="0 0 28 29" id="instagram" xmlns="http://www.w3.org/2000/svg"><path d="M0 14.5C0 6.492 6.268 0 14 0s14 6.492 14 14.5S21.732 29 14 29 0 22.508 0 14.5z" fill="#F7F7F7"/><mask id="afa" style="mask-type:luminance" maskUnits="userSpaceOnUse" x="0" y="0" width="28" height="29"><path fill-rule="evenodd" clip-rule="evenodd" d="M0 14.5C0 6.492 6.268 0 14 0s14 6.492 14 14.5S21.732 29 14 29 0 22.508 0 14.5z" fill="#fff"/></mask><g mask="url(#afa)"><path fill-rule="evenodd" clip-rule="evenodd" d="M14 6.767c-2.027 0-2.282.009-3.078.046-.795.038-1.338.168-1.812.36a3.646 3.646 0 00-1.323.891c-.415.43-.67.862-.862 1.37-.185.492-.311 1.054-.347 1.877-.035.825-.045 1.089-.045 3.19 0 2.1.01 2.362.045 3.187.037.823.163 1.385.347 1.877.191.509.446.94.861 1.37.415.43.832.695 1.323.893.475.19 1.017.321 1.812.359.797.037 1.05.046 3.079.046 2.028 0 2.281-.009 3.078-.046.795-.038 1.338-.168 1.813-.36.49-.197.907-.462 1.322-.892.415-.43.67-.861.861-1.37.184-.492.31-1.054.347-1.877.036-.825.046-1.088.046-3.188s-.01-2.364-.046-3.189c-.037-.823-.163-1.385-.346-1.877a3.81 3.81 0 00-.862-1.37 3.638 3.638 0 00-1.323-.891c-.476-.192-1.018-.322-1.813-.36-.797-.037-1.05-.046-3.079-.046h.003zm-.669 1.393h.671c1.993 0 2.229.008 3.016.045.728.034 1.123.16 1.387.266.348.14.596.308.858.578.261.271.423.529.558.89.103.272.224.681.257 1.435.036.816.044 1.06.044 3.124s-.008 2.31-.044 3.124c-.033.754-.154 1.163-.257 1.436a2.4 2.4 0 01-.558.888c-.262.27-.51.438-.858.579-.263.106-.659.232-1.387.266-.787.037-1.023.045-3.017.045s-2.23-.008-3.017-.045c-.728-.035-1.123-.16-1.387-.267a2.307 2.307 0 01-.858-.578 2.407 2.407 0 01-.56-.889c-.101-.272-.223-.681-.256-1.435-.036-.816-.043-1.06-.043-3.126 0-2.065.007-2.308.043-3.124.033-.754.155-1.163.257-1.435.135-.361.297-.62.559-.89.261-.27.51-.438.858-.579.264-.106.659-.232 1.387-.266.689-.032.956-.042 2.347-.044v.002zm3.759 2.212c0-.512.401-.928.896-.928.494 0 .896.416.896.928s-.402.928-.896.928c-.495 0-.896-.416-.896-.928zm-3.09.157c-2.117 0-3.834 1.778-3.834 3.971s1.717 3.97 3.835 3.97c2.117 0 3.833-1.777 3.833-3.97 0-2.193-1.716-3.971-3.834-3.971zm2.49 3.971c0-1.424-1.115-2.578-2.49-2.578-1.374 0-2.488 1.154-2.488 2.578s1.114 2.578 2.489 2.578c1.374 0 2.489-1.154 2.489-2.578z" fill="currentColor"/></g></svg><svg fill="none" viewBox="0 0 16 17" id="label" xmlns="http://www.w3.org/2000/svg"><g clip-path="url(#agclip0_102_2400)" fill="currentColor"><path d="M13.638 3.537L8.324.584a.667.667 0 00-.648 0L2.362 3.537a2 2 0 00-1.029 1.748v7.882A3.337 3.337 0 004.666 16.5h6.667a3.338 3.338 0 003.333-3.333V5.285a2 2 0 00-1.028-1.748zm-.305 9.63a2 2 0 01-2 2H4.666a2 2 0 01-2-2V5.285A.667.667 0 013.01 4.7L8 1.93l4.99 2.77a.667.667 0 01.343.585v7.882z"/><path d="M8 6.167a1 1 0 100-2 1 1 0 000 2z"/></g><defs><clipPath id="agclip0_102_2400"><path fill="#fff" transform="translate(0 .5)" d="M0 0h16v16H0z"/></clipPath></defs></svg><svg fill="none" viewBox="0 0 14 16" id="location" xmlns="http://www.w3.org/2000/svg"><path fill-rule="evenodd" clip-rule="evenodd" d="M6.89.001c.473.015 1.08.075 1.349.135.27.068.756.225 1.086.352.33.128.869.405 1.198.622.33.217.817.614 1.087.884s.666.756.883 1.086c.217.33.495.869.622 1.198.127.33.3.914.374 1.296.083.374.143.899.143 1.153 0 .263-.053.757-.113 1.109a9.08 9.08 0 01-.232 1.011 9.479 9.479 0 01-.42.974c-.164.33-.419.764-.576.973-.157.203-.839.997-1.52 1.76a81.302 81.302 0 01-2.053 2.233c-.599.621-.92.898-1.213 1.033-.21.098-.524.18-.69.18-.164 0-.478-.082-.696-.18-.277-.127-.599-.397-1.1-.921-.39-.404-1.289-1.378-1.986-2.157-.696-.787-1.393-1.573-1.542-1.76a6.558 6.558 0 01-1.004-1.76A8.575 8.575 0 01.142 8C.067 7.626 0 7.1 0 6.84c0-.255.052-.764.12-1.139a8.7 8.7 0 01.307-1.198c.105-.285.307-.742.457-1.011.15-.27.464-.727.696-1.011.233-.293.637-.697.9-.914.261-.21.718-.524 1.003-.69A7.298 7.298 0 014.719.354c.39-.12.846-.254 1.01-.292.166-.045.69-.067 1.162-.06zM5.656 1.327c-.247.045-.69.18-.974.3a5.794 5.794 0 00-1.745 1.138c-.18.172-.472.517-.652.764-.18.247-.426.674-.554.951a6.567 6.567 0 00-.337.974c-.06.262-.127.674-.157.921-.03.248-.008.734.037 1.086.053.352.18.892.285 1.199.112.307.322.756.464.996.143.24.854 1.101 1.573 1.91a81.247 81.247 0 002.172 2.36c.644.658.907.876 1.049.876.142 0 .404-.225 1.056-.884a79.067 79.067 0 002.157-2.337c.712-.801 1.423-1.678 1.588-1.947a7.02 7.02 0 00.48-1.05c.104-.306.224-.83.269-1.16.045-.33.06-.801.03-1.049-.03-.247-.098-.659-.157-.92-.06-.256-.21-.69-.337-.975a7.46 7.46 0 00-.547-.95c-.18-.248-.487-.6-.69-.787a8.671 8.671 0 00-.74-.6 6.04 6.04 0 00-.847-.464 6.292 6.292 0 00-.936-.322 8.147 8.147 0 00-1.064-.142c-.33-.015-.682-.023-.786 0-.105.015-.39.067-.637.112zM6.928 4.42c.345.015.66.083.929.203.232.105.532.322.704.517.172.187.375.486.457.674.12.254.157.494.157.973 0 .48-.037.72-.157.974a2.979 2.979 0 01-.457.674 2.54 2.54 0 01-.704.524c-.33.15-.524.188-1.041.188-.502 0-.712-.038-1.011-.173a3.079 3.079 0 01-.697-.486 2.655 2.655 0 01-.48-.69c-.134-.292-.171-.516-.171-1.01 0-.51.037-.712.172-1.012.097-.21.3-.502.45-.659.149-.157.374-.344.501-.412.127-.06.36-.157.524-.217.173-.053.517-.082.824-.068zM5.812 6.204c-.112.187-.195.435-.195.584 0 .143.075.412.165.592.113.21.27.382.435.472.142.075.412.135.599.135s.457-.06.6-.135c.164-.09.321-.262.433-.472.09-.18.165-.45.165-.592 0-.142-.075-.412-.165-.591a1.163 1.163 0 00-.434-.472 1.53 1.53 0 00-.6-.135c-.201 0-.426.06-.568.142a1.787 1.787 0 00-.435.472z" fill="currentColor"/></svg><svg fill="none" viewBox="0 0 16 16" id="location-2" xmlns="http://www.w3.org/2000/svg"><g clip-path="url(#aiclip0_102_2598)" fill="currentColor"><path d="M8 4a2.667 2.667 0 100 5.333A2.667 2.667 0 008 4zm0 4a1.333 1.333 0 110-2.667A1.333 1.333 0 018 8z"/><path d="M8 16a3.515 3.515 0 01-2.874-1.466c-2.54-3.505-3.83-6.14-3.83-7.832a6.703 6.703 0 0113.408 0c0 1.692-1.29 4.327-3.83 7.832A3.514 3.514 0 018 16zM8 1.454a5.255 5.255 0 00-5.25 5.25c0 1.34 1.263 3.817 3.554 6.977a2.096 2.096 0 003.393 0c2.29-3.16 3.553-5.637 3.553-6.977A5.255 5.255 0 008 1.454z"/></g><defs><clipPath id="aiclip0_102_2598"><path fill="#fff" d="M0 0h16v16H0z"/></clipPath></defs></svg><svg fill="none" viewBox="0 0 74 33" id="logo" xmlns="http://www.w3.org/2000/svg"><path d="M.888 24V.96h3.856v19.424H14.92V24H.888zm24.375.48c-1.728 0-3.238-.39-4.528-1.168a8.024 8.024 0 01-3.008-3.216c-.704-1.376-1.056-2.955-1.056-4.736 0-1.813.362-3.403 1.088-4.768.725-1.365 1.733-2.432 3.024-3.2 1.29-.768 2.784-1.152 4.48-1.152 1.738 0 3.253.39 4.544 1.168 1.29.779 2.293 1.856 3.008 3.232.714 1.365 1.072 2.939 1.072 4.72 0 1.792-.363 3.376-1.088 4.752a8.022 8.022 0 01-3.008 3.216c-1.291.768-2.8 1.152-4.528 1.152zm0-3.616c1.536 0 2.677-.512 3.424-1.536.746-1.024 1.12-2.347 1.12-3.968 0-1.675-.379-3.008-1.136-4-.758-1.003-1.894-1.504-3.408-1.504-1.035 0-1.888.235-2.56.704-.662.459-1.152 1.104-1.472 1.936-.32.821-.48 1.776-.48 2.864 0 1.675.378 3.013 1.136 4.016.768.992 1.893 1.488 3.376 1.488zM44.676 32.16a8.6 8.6 0 01-2.768-.448 7.75 7.75 0 01-2.368-1.296 6.837 6.837 0 01-1.728-2.016l3.552-1.76c.33.63.794 1.093 1.392 1.392.608.31 1.253.464 1.936.464.8 0 1.514-.144 2.144-.432a3.154 3.154 0 001.456-1.248c.352-.544.517-1.227.496-2.048v-4.912h.48V6.72h3.376v18.112c0 .437-.021.853-.064 1.248-.032.405-.09.8-.176 1.184-.256 1.12-.747 2.037-1.472 2.752-.726.725-1.627 1.264-2.704 1.616-1.067.352-2.25.528-3.552.528zm-.336-7.68c-1.59 0-2.976-.4-4.16-1.2-1.184-.8-2.102-1.888-2.752-3.264-.65-1.376-.976-2.928-.976-4.656 0-1.75.325-3.307.976-4.672.661-1.376 1.595-2.459 2.8-3.248 1.205-.8 2.624-1.2 4.256-1.2 1.642 0 3.018.4 4.128 1.2 1.12.79 1.968 1.872 2.544 3.248.576 1.376.864 2.933.864 4.672 0 1.717-.288 3.27-.864 4.656-.576 1.376-1.435 2.464-2.576 3.264-1.142.8-2.555 1.2-4.24 1.2zm.592-3.456c1.035 0 1.866-.235 2.496-.704.64-.48 1.104-1.147 1.392-2 .298-.853.448-1.84.448-2.96 0-1.13-.15-2.117-.448-2.96-.288-.853-.742-1.515-1.36-1.984-.619-.48-1.419-.72-2.4-.72-1.035 0-1.888.256-2.56.768-.672.501-1.168 1.184-1.488 2.048-.32.853-.48 1.803-.48 2.848 0 1.056.155 2.016.464 2.88.32.853.805 1.53 1.456 2.032.65.501 1.477.752 2.48.752zm19.83 3.456c-1.727 0-3.237-.39-4.527-1.168a8.024 8.024 0 01-3.008-3.216c-.704-1.376-1.056-2.955-1.056-4.736 0-1.813.362-3.403 1.088-4.768.725-1.365 1.733-2.432 3.024-3.2 1.29-.768 2.784-1.152 4.48-1.152 1.738 0 3.253.39 4.544 1.168 1.29.779 2.293 1.856 3.008 3.232.714 1.365 1.072 2.939 1.072 4.72 0 1.792-.363 3.376-1.088 4.752a8.022 8.022 0 01-3.008 3.216c-1.291.768-2.8 1.152-4.528 1.152zm0-3.616c1.537 0 2.678-.512 3.425-1.536.746-1.024 1.12-2.347 1.12-3.968 0-1.675-.379-3.008-1.136-4-.758-1.003-1.894-1.504-3.408-1.504-1.035 0-1.888.235-2.56.704-.662.459-1.152 1.104-1.472 1.936-.32.821-.48 1.776-.48 2.864 0 1.675.378 3.013 1.136 4.016.768.992 1.893 1.488 3.376 1.488z" fill="currentColor"/></svg><svg fill="none" viewBox="0 0 16 16" id="mail" xmlns="http://www.w3.org/2000/svg"><g clip-path="url(#akclip0_102_2586)"><path d="M12.667.667H3.333A3.337 3.337 0 000 4v8a3.338 3.338 0 003.333 3.333h9.334A3.337 3.337 0 0016 12V4A3.338 3.338 0 0012.667.667zM3.333 2h9.334a2 2 0 011.853 1.258L9.415 8.364a2.005 2.005 0 01-2.83 0L1.48 3.258A2 2 0 013.333 2zm9.334 12H3.333a2 2 0 01-2-2V5l4.31 4.307a3.338 3.338 0 004.714 0L14.667 5v7a2 2 0 01-2 2z" fill="currentColor"/></g><defs><clipPath id="akclip0_102_2586"><path fill="#fff" d="M0 0h16v16H0z"/></clipPath></defs></svg><svg fill="none" viewBox="0 0 22 19" id="map" xmlns="http://www.w3.org/2000/svg"><path fill-rule="evenodd" clip-rule="evenodd" d="M7.36.01c.12 0 1.574.985 3.225 2.187 1.65 1.203 3.05 2.22 3.115 2.252.066.022 1.509-.962 3.225-2.208C18.641 1.006 20.128 0 20.237 0c.099 0 .328.142.842.656V13.5l-.35.339c-.197.185-1.694 1.3-3.312 2.47-1.618 1.18-3.116 2.23-3.302 2.34-.316.186-.382.186-.6.054-.143-.087-1.553-1.104-3.15-2.263-1.595-1.158-2.929-2.11-2.983-2.12-.044 0-1.345.918-2.886 2.055-1.553 1.126-2.952 2.131-3.127 2.24-.164.1-.372.187-.46.187-.087 0-.316-.153-.819-.656L.08 5.302l.294-.273c.153-.153 1.738-1.345 3.52-2.646C5.687 1.083 7.24.011 7.36.011zM1.84 6.068c0 7.75.043 9.992.087 9.98.054-.021 1.104-.775 2.35-1.672l2.263-1.64c0-7.75-.033-10.002-.088-9.991-.043 0-1.093.743-2.35 1.662L1.839 6.067zM8.3 12.79c3.323 2.416 4.362 3.149 4.438 3.203.12.066.153-.798.153-4.952V6.012C9.557 3.597 8.53 2.853 8.453 2.81c-.11-.065-.142.952-.153 4.953v5.028zm6.351-6.723c0 7.663.033 9.904.077 9.926.043.033 1.104-.7 2.35-1.607l2.274-1.65c-.011-7.762-.022-10.003-.044-10.003s-1.071.743-2.35 1.662L14.65 6.067z" fill="currentColor"/></svg><svg fill="none" viewBox="0 0 17 14" id="metro" xmlns="http://www.w3.org/2000/svg"><path d="M5.663.688c.057-.02.135-.05.172-.062C5.873.613 5.908.6 5.913.6c.008-.001.323 1.025 1.363 4.43a2133.61 2133.61 0 001.356 4.435c.002 0 .495-1.61 1.096-3.577l1.353-4.434c.143-.47.263-.855.265-.855l.125.041a5.781 5.781 0 01.483.192l.222.103a7.681 7.681 0 01.69.38 10.28 10.28 0 01.47.31l.19.139a11.05 11.05 0 01.425.341l.188.165a11.295 11.295 0 01.614.617 10.127 10.127 0 01.317.378 8.96 8.96 0 01.332.459 8.88 8.88 0 01.268.434 8.226 8.226 0 01.418.87 8.707 8.707 0 01.19.537 8.938 8.938 0 01.138.506c.015.066.04.176.054.247a10.175 10.175 0 01.122.825 12.056 12.056 0 01.035.5 12.054 12.054 0 01-.01.966 5.579 5.579 0 01-.12.919 7.463 7.463 0 01-.59 1.718 9.538 9.538 0 01-.715 1.256 10.783 10.783 0 01-.368.522 12.023 12.023 0 01-.3.375H12.67c-1.018 0-1.851-.001-1.851-.003s.049-.03.107-.064a10.694 10.694 0 00.427-.257 13.039 13.039 0 00.76-.528 14.357 14.357 0 00.384-.304 11.752 11.752 0 00.419-.366 11.866 11.866 0 00.52-.522 12.3 12.3 0 00.318-.372 9.499 9.499 0 00.294-.393l.107-.16a7.217 7.217 0 00.188-.313 7.655 7.655 0 00.21-.421 4.767 4.767 0 00.22-.606 10.082 10.082 0 00.124-.488l.044-.222a6.971 6.971 0 00.087-.665 5.567 5.567 0 00-.013-1.088 5.357 5.357 0 00-.146-.812 6.534 6.534 0 00-.153-.503 6.67 6.67 0 00-.236-.563 6.16 6.16 0 00-1.167-1.637 3.8 3.8 0 00-.207-.195 1.496 1.496 0 00-.2-.131 1.09 1.09 0 00-.231-.09.964.964 0 00-.125-.023.549.549 0 00-.128 0c-.034.005-.08.012-.1.017a.725.725 0 00-.203.1.855.855 0 00-.16.175 1.14 1.14 0 00-.106.209 7131.424 7131.424 0 00-3.203 10.092c-.007.022-.014.04-.018.04-.002 0-.193-.598-.425-1.327A12412.907 12412.907 0 005.43 3.228a1.198 1.198 0 00-.128-.263.78.78 0 00-.153-.169.828.828 0 00-.065-.044.728.728 0 00-.175-.068.777.777 0 00-.522.087 1.79 1.79 0 00-.125.07c-.03.02-.077.054-.106.077-.03.023-.115.103-.191.179a7.675 7.675 0 00-.22.228c-.044.05-.12.137-.167.194a7.033 7.033 0 00-.519.725 7.985 7.985 0 00-.25.453 6.808 6.808 0 00-.192.431 6.487 6.487 0 00-.264.856 6.402 6.402 0 00-.087.491 5.796 5.796 0 00-.042.45 6.797 6.797 0 00-.004.4c.002.159.008.313.013.384l.02.204a13.447 13.447 0 00.053.375 8.586 8.586 0 00.2.853c.02.068.048.158.062.2a5.264 5.264 0 00.345.765l.098.169a6.703 6.703 0 00.744 1 8.424 8.424 0 00.654.66l.222.195a13.91 13.91 0 00.519.418 17.085 17.085 0 00.503.36 11.442 11.442 0 00.51.323 10.414 10.414 0 00.278.164c.001.003-.83.005-3.7.004l-.023-.026a9.744 9.744 0 01-1.05-1.53 9.904 9.904 0 01-.53-1.103 8.832 8.832 0 01-.176-.48 8.145 8.145 0 01-.18-.66 10.426 10.426 0 01-.072-.384 6.333 6.333 0 01-.07-.732 10.175 10.175 0 01.032-1.337 10.848 10.848 0 01.05-.41 8.836 8.836 0 01.078-.45 9.29 9.29 0 01.147-.593 8.152 8.152 0 01.241-.697l.085-.2a8.575 8.575 0 01.287-.578 8.25 8.25 0 01.27-.444c.046-.07.11-.166.143-.212L2.1 3.39a9.056 9.056 0 01.322-.4c.042-.048.122-.138.18-.2a10.797 10.797 0 01.517-.513 10.742 10.742 0 01.65-.535 9.24 9.24 0 01.632-.429 7.107 7.107 0 01.353-.205A10.307 10.307 0 015.273.85l.193-.084c.052-.022.14-.057.197-.078z" fill="currentColor"/></svg><svg fill="none" viewBox="0 0 13 16" id="phone" xmlns="http://www.w3.org/2000/svg"><path fill-rule="evenodd" clip-rule="evenodd" d="M3.792 0c.232 0 .487.022.561.052.068.038.292.15.494.247s.479.314.621.479c.135.164.471.785.748 1.384.456 1.002.501 1.122.501 1.608.008.419-.03.606-.194.935-.142.3-.412.613-.995 1.16-.778.725-.8.755-.756 1.01.03.141.217.598.42 1.01.201.41.553.986.77 1.27.224.285.486.577.598.636.18.105.262.09 1.152-.164.59-.18 1.115-.284 1.369-.284.224 0 .56.045.748.112.187.06.471.224.636.366.164.135.59.651.95 1.137.359.494.71 1.055.778 1.264.09.262.112.517.09.86-.023.277-.105.614-.195.786-.082.165-.411.554-.74.868-.322.306-.681.636-.809.718-.127.09-.463.247-.748.351-.321.12-.68.195-.935.195-.239 0-.665-.082-1.01-.194a8.198 8.198 0 01-1.196-.51 9.587 9.587 0 01-1.085-.68c-.262-.21-.68-.56-.927-.785a13.82 13.82 0 01-1.04-1.16 23.669 23.669 0 01-1.092-1.496c-.27-.411-.778-1.324-1.13-2.02C1.025 8.46.628 7.548.494 7.137c-.135-.411-.3-1.002-.367-1.309C.037 5.446 0 4.922 0 4.181c0-.815.03-1.204.135-1.57.067-.27.217-.636.329-.823.104-.187.299-.45.426-.591.12-.135.374-.337.561-.449.187-.105.688-.314 1.122-.464.516-.18.935-.277 1.22-.284zM2.087 1.765a2.283 2.283 0 00-.426.39c-.12.126-.27.426-.337.658-.105.321-.135.68-.127 1.406 0 .733.045 1.137.172 1.645.09.374.314 1.063.501 1.534.187.471.501 1.144.688 1.496.187.351.516.92.733 1.271.21.352.591.913.846 1.25.254.344.68.86.964 1.16.277.29.741.717 1.025.95a8.03 8.03 0 001.122.732c.33.172.816.367 1.085.434.396.097.553.105.86.037a2.08 2.08 0 00.561-.202 8.06 8.06 0 00.666-.538c.262-.232.523-.509.576-.628.06-.113.104-.33.104-.487.008-.224-.09-.411-.463-.95-.262-.366-.621-.83-.808-1.024-.307-.322-.367-.36-.673-.36-.187 0-.726.12-1.197.262-.471.142-1.017.262-1.212.262-.202 0-.479-.06-.636-.142-.157-.075-.493-.36-.748-.636-.262-.27-.673-.838-.92-1.264-.247-.419-.523-.95-.606-1.174a7.573 7.573 0 01-.232-.786c-.06-.284-.06-.464.015-.748.09-.329.202-.471.95-1.197.464-.456.883-.905.928-1.01a.974.974 0 00.037-.448c-.03-.142-.262-.68-.516-1.197-.277-.554-.538-.987-.65-1.062a1.394 1.394 0 00-.45-.165c-.171-.03-.5.03-.934.165-.367.112-.77.277-.898.366z" fill="currentColor"/></svg><svg fill="none" viewBox="0 0 17 16" id="phone-2" xmlns="http://www.w3.org/2000/svg"><g clip-path="url(#aoclip0_102_2594)"><path d="M16.132 1.349v2.666a.666.666 0 11-1.333 0V2.307L11.265 5.82a.666.666 0 01-.94-.945l3.547-3.527h-1.74a.667.667 0 110-1.334H14.8a1.333 1.333 0 011.333 1.334zm-.603 9.826a2.067 2.067 0 010 2.918l-.608.7C9.46 20.02-3.826 6.737 1.32 1.26l.766-.667A2.057 2.057 0 014.973.62c.02.02 1.255 1.626 1.255 1.626a2.067 2.067 0 01-.004 2.854l-.772.971a8.52 8.52 0 004.62 4.63l.977-.777a2.067 2.067 0 012.853-.004s1.606 1.236 1.627 1.256zm-.917.969s-1.595-1.228-1.616-1.248a.733.733 0 00-1.033 0c-.018.017-1.362 1.09-1.362 1.09a.667.667 0 01-.653.1 10 10 0 01-5.882-5.874.667.667 0 01.096-.663s1.072-1.345 1.09-1.363a.733.733 0 000-1.033c-.02-.02-1.248-1.616-1.248-1.616a.733.733 0 00-1.007.026l-.766.666c-3.763 4.522 7.753 15.399 11.714 11.655l.608-.7a.747.747 0 00.06-1.04z" fill="currentColor"/></g><defs><clipPath id="aoclip0_102_2594"><path fill="#fff" transform="translate(.146)" d="M0 0h16v16H0z"/></clipPath></defs></svg><svg fill="none" viewBox="0 0 16 16" id="picture" xmlns="http://www.w3.org/2000/svg"><g clip-path="url(#apclip0_102_3444)" fill="currentColor"><path d="M12.667 0H3.333A3.337 3.337 0 000 3.333v9.334A3.337 3.337 0 003.333 16h9.334A3.337 3.337 0 0016 12.667V3.333A3.337 3.337 0 0012.667 0zM3.333 1.333h9.334a2 2 0 012 2v9.334c-.002.297-.07.59-.2.856L8.358 7.415a3.333 3.333 0 00-4.715 0l-2.31 2.309v-6.39a2 2 0 012-2zm0 13.334a2 2 0 01-2-2v-1.058l3.252-3.252a2 2 0 012.83 0l6.108 6.11c-.266.13-.56.198-.856.2H3.333z"/><path d="M10.666 7a2.333 2.333 0 100-4.667 2.333 2.333 0 000 4.667zm0-3.334a1 1 0 110 2 1 1 0 010-2z"/></g><defs><clipPath id="apclip0_102_3444"><path fill="#fff" d="M0 0h16v16H0z"/></clipPath></defs></svg><svg fill="none" viewBox="0 0 14 14" id="plus" xmlns="http://www.w3.org/2000/svg"><path d="M13.192 6.192H7.808V.81A.828.828 0 007 0a.828.828 0 00-.808.808v5.383H.808A.828.828 0 000 7c0 .43.377.808.808.808h5.384v5.383c0 .431.377.808.808.808.43 0 .808-.377.808-.808V7.808h5.384c.431 0 .808-.377.808-.808a.828.828 0 00-.808-.808z" fill="currentColor"/></svg><svg fill="none" viewBox="0 0 22 22" id="repair" xmlns="http://www.w3.org/2000/svg"><path fill-rule="evenodd" clip-rule="evenodd" d="M2.28.51L16.685.5l.522.262c.275.142.658.404.835.586.187.172.443.535.58.818.138.272.276.737.374 1.545l.443.06c.245.03.61.172.816.313.236.162.442.434.6.778.236.525.236.565.177 2.655-.06 2.06-.07 2.13-.315 2.524a1.9 1.9 0 01-.64.595c-.275.132-1.779.404-4.817.869-2.439.373-4.484.706-4.553.747-.06.03-.118.242-.118.464 0 .334.04.414.216.475.128.04.374.212.56.373.178.172.424.495.542.717.186.364.206.596.245 2.625.03 1.808 0 2.322-.127 2.777-.08.303-.295.737-.472.949-.177.212-.531.505-.797.626a2.06 2.06 0 01-1.032.242c-.463 0-.66-.06-1.102-.323-.364-.232-.629-.495-1.13-1.323l-.06-5.068.276-.555c.206-.404.423-.646.796-.909.502-.343.512-.363.512-.838 0-.273.078-.646.196-.878.108-.222.295-.485.423-.586.118-.09.354-.222.511-.293.168-.07 2.262-.424 4.671-.787 2.41-.364 4.435-.687 4.494-.707.098-.04.118-.505.098-1.948-.02-1.798-.03-1.888-.216-1.919-.167-.03-.207.04-.256.505-.04.293-.177.757-.314 1.04-.138.273-.394.646-.58.818-.178.182-.522.424-1.21.797H2.182l-.492-.272a3.174 3.174 0 01-.796-.606C.717 7.466.46 7.063.314 6.76.047 6.204.047 6.194.076 4.438c.04-1.687.05-1.788.305-2.272.138-.283.403-.646.59-.818.177-.182.541-.434.816-.575L2.28.51zm-.452 2.312c-.158.293-.187.566-.187 1.716 0 1.141.03 1.414.187 1.717.098.192.334.424.511.525.305.161.846.182 7.168.182 6.323 0 6.864-.02 7.169-.182.177-.101.413-.333.51-.525.158-.303.188-.576.188-1.717 0-1.11-.03-1.433-.167-1.706a1.67 1.67 0 00-.522-.535c-.324-.182-.658-.182-7.178-.182-6.322 0-6.863.01-7.168.172a1.465 1.465 0 00-.511.535zM8.996 17.24l.02 2.242c.422.313.639.404.767.404.127 0 .363-.142.52-.303l.286-.303c0-3.524-.04-4.11-.138-4.321-.069-.152-.206-.313-.295-.354a1.297 1.297 0 00-.432-.07c-.158 0-.384.1-.512.232-.236.232-.236.242-.216 2.473z" fill="currentColor"/></svg><svg fill="none" viewBox="0 0 22 20" id="review" xmlns="http://www.w3.org/2000/svg"><path fill-rule="evenodd" clip-rule="evenodd" d="M2.858.01L18.24 0l.669.295c.383.177.845.491 1.12.767.265.255.59.727 1.012 1.641l.03 4.866c.02 3.49 0 5.023-.079 5.406a5.525 5.525 0 01-.304.914c-.108.197-.374.57-.61.816-.226.246-.658.57-1.494.973l-6.979.098L9.1 17.654a213.003 213.003 0 01-2.831 2.084 1.322 1.322 0 01-.688.216c-.286.01-.453-.069-1.249-.767l-.059-3.41-.855-.05c-.688-.049-.973-.108-1.435-.344-.315-.167-.747-.481-.954-.717a3.672 3.672 0 01-.56-.787 4.578 4.578 0 01-.305-.806c-.088-.324-.108-1.75-.059-10.37l.276-.59c.147-.324.462-.786.688-1.022.236-.246.707-.57 1.1-.757L2.859.01zm-.393 1.926c-.168.109-.403.374-.541.58l-.246.384v9.928c.384.668.649.953.836 1.071.295.177.54.216 1.592.256 1.14.049 1.278.069 1.475.275.216.216.226.324.275 1.936l.049 1.71c3.657-2.752 4.846-3.627 5.013-3.735.275-.167.54-.186 3.784-.186h3.49c.62-.364.894-.65 1.032-.895l.246-.432V2.9c-.384-.6-.669-.885-.875-1.023l-.393-.255c-11.51-.02-14.98 0-15.148.04-.167.039-.432.156-.59.274zm4.492 4.955c.285 0 .442.059.668.285.216.216.295.393.295.639 0 .196-.059.471-.138.619a1.02 1.02 0 01-.412.403c-.168.078-.433.108-.63.078-.186-.039-.442-.157-.56-.285a1.122 1.122 0 01-.285-.57.832.832 0 01.118-.658c.098-.177.275-.364.383-.413.109-.05.364-.098.56-.098zm3.607-.01c.207 0 .462.078.62.196.157.108.314.354.373.541.079.265.059.432-.05.688-.078.197-.274.413-.441.492a1.29 1.29 0 01-.492.147c-.108 0-.334-.059-.492-.147-.167-.08-.363-.295-.442-.492-.108-.256-.128-.423-.049-.688.05-.187.216-.433.364-.54.137-.109.413-.197.61-.197zm3.588 0c.197 0 .452.049.57.108.128.049.315.236.413.413a.832.832 0 01.118.658c-.03.197-.157.452-.285.57a1.13 1.13 0 01-.56.285c-.227.04-.443 0-.64-.098a1.195 1.195 0 01-.422-.403 1.632 1.632 0 01-.108-.6c0-.255.088-.442.285-.638.206-.217.373-.295.629-.295z" fill="currentColor"/></svg><svg fill="none" viewBox="0 0 16 16" id="search" xmlns="http://www.w3.org/2000/svg"><path d="M7.3 13.6A6.3 6.3 0 107.3 1a6.3 6.3 0 000 12.6zM15 15l-3.3-3.3" stroke="#fff" stroke-width="1.5" stroke-linecap="round" stroke-linejoin="round"/></svg><svg fill="none" viewBox="0 0 16 16" id="site" xmlns="http://www.w3.org/2000/svg"><g clip-path="url(#auclip0_102_2590)"><path d="M8 0a8 8 0 108 8 8.009 8.009 0 00-8-8zm5.765 4.667h-2.148a13.118 13.118 0 00-1.88-3.096 6.688 6.688 0 014.028 3.096zM11 8a6.808 6.808 0 01-.317 2H5.317A6.808 6.808 0 015 8a6.808 6.808 0 01.317-2h5.366c.205.647.312 1.321.317 2zm-5.148 3.333h4.296A13.074 13.074 0 018 14.392a13.047 13.047 0 01-2.148-3.059zm0-6.666A13.076 13.076 0 018 1.608c.86.911 1.583 1.941 2.148 3.059H5.852zm.415-3.096a13.117 13.117 0 00-1.884 3.096H2.235A6.687 6.687 0 016.267 1.57zM1.64 6h2.292a8.01 8.01 0 00-.266 2 8.01 8.01 0 00.266 2H1.641a6.661 6.661 0 010-4zm.594 5.333h2.148a13.116 13.116 0 001.884 3.096 6.687 6.687 0 01-4.032-3.096zm7.502 3.096c.767-.94 1.4-1.982 1.88-3.096h2.148a6.687 6.687 0 01-4.028 3.096zM14.359 10h-2.292a8.01 8.01 0 00.266-2 8.01 8.01 0 00-.266-2h2.291a6.66 6.66 0 010 4h.001z" fill="currentColor"/></g><defs><clipPath id="auclip0_102_2590"><path fill="#fff" d="M0 0h16v16H0z"/></clipPath></defs></svg><svg fill="none" viewBox="0 0 19 17" id="sorting" xmlns="http://www.w3.org/2000/svg"><path d="M18.2 5.1l-3.6-3.6L11 5.1M14.6 15.5v-14" stroke="#B8B8B8" stroke-width="1.5" stroke-linecap="round" stroke-linejoin="round"/><path d="M1 11.9l3.6 3.6 3.6-3.6M4.6 1.5v14" stroke="#59B96E" stroke-width="1.5" stroke-linecap="round" stroke-linejoin="round"/></svg><svg fill="none" viewBox="0 0 14 14" id="star" xmlns="http://www.w3.org/2000/svg"><path d="M7 0l2.207 4.64L14 5.36l-3.5 3.6.837 5.04L7 11.6 2.663 14 3.5 8.96 0 5.36l4.87-.72L7 0z" fill="currentColor"/></svg><svg fill="none" viewBox="0 0 28 29" id="telegram" xmlns="http://www.w3.org/2000/svg"><path d="M14 29c7.732 0 14-6.492 14-14.5S21.732 0 14 0 0 6.492 0 14.5 6.268 29 14 29z" fill="#F7F7F7"/><path d="M11.434 21.146c.35 0 .504-.166.7-.363L14 18.903l-2.328-1.454" fill="currentColor"/><path d="M11.671 17.45l5.642 4.317c.644.368 1.109.177 1.269-.62L20.879 9.94c.235-.977-.36-1.42-.976-1.13L6.418 14.195c-.92.382-.915.914-.168 1.151l3.46 1.119 8.013-5.235c.378-.238.725-.11.44.152" fill="currentColor"/></svg><svg fill="none" viewBox="0 0 22 23" id="top-10" xmlns="http://www.w3.org/2000/svg"><path d="M10.23 1.426a1 1 0 011.54 0l1.64 1.976a1 1 0 00.948.345l2.528-.459a1 1 0 011.179.99l-.013 2.568a1 1 0 00.505.873l2.23 1.274a1 1 0 01.268 1.515l-1.661 1.96a1 1 0 00-.175.993l.89 2.41a1 1 0 01-.769 1.332l-2.532.434a1 1 0 00-.773.648l-.867 2.419a1 1 0 01-1.445.526l-2.219-1.296a1 1 0 00-1.008 0L8.277 21.23a1 1 0 01-1.445-.526l-.867-2.419a1 1 0 00-.773-.648l-2.532-.434a1 1 0 01-.77-1.332l.891-2.41a1 1 0 00-.175-.993l-1.66-1.96a1 1 0 01.266-1.515L3.443 7.72a1 1 0 00.505-.873l-.013-2.569a1 1 0 011.179-.989l2.527.459a1 1 0 00.948-.345l1.642-1.976z" fill="currentColor"/><path d="M14 8.5l-3.696 5L8 10.975" stroke="#fff" stroke-width="1.5" stroke-miterlimit="10" stroke-linecap="round" stroke-linejoin="round"/></svg><svg fill="none" viewBox="0 0 18 10" id="up" xmlns="http://www.w3.org/2000/svg"><path d="M17 9L9 1 1 9" stroke="currentColor" stroke-width="2" stroke-linecap="round" stroke-linejoin="round"/></svg><svg fill="none" viewBox="0 0 28 29" id="vkontakte" xmlns="http://www.w3.org/2000/svg"><path d="M0 14.5C0 6.492 6.268 0 14 0s14 6.492 14 14.5S21.732 29 14 29 0 22.508 0 14.5z" fill="#F7F7F7"/><path d="M5.363 11.388a21.544 21.544 0 01-.093-1.166l-.02-.555h2.982l.017.211c.007.12.024.382.034.59.01.208.045.559.072.784.027.225.096.63.15.903.055.273.161.696.233.938.075.242.191.59.263.767.068.177.205.477.3.665.1.187.263.47.37.63a5.552 5.552 0 00.82 1.006c.122.112.327.286.457.385.133.096.376.25.546.338.168.085.414.194.547.238.133.045.242.079.246.079.007 0 .01-1.695.01-7.534h2.835v2.147c0 1.18.01 2.148.024 2.148.017 0 .175-.034.352-.082.178-.044.472-.15.65-.238.177-.089.467-.263.645-.389.177-.126.471-.375.652-.552a8.51 8.51 0 00.554-.614c.123-.16.307-.42.413-.58.102-.16.263-.443.359-.63.095-.188.218-.457.273-.597.055-.14.126-.337.212-.613H22.1l-.051.211-.123.47c-.038.14-.123.403-.192.58a8.651 8.651 0 01-1.294 2.233c-.15.188-.434.501-.632.699a9.23 9.23 0 01-.646.59c-.16.13-.423.324-.59.436-.202.136-.284.211-.257.228.024.017.143.079.267.14.123.065.392.225.597.362.205.14.506.354.666.484.158.126.448.392.65.59.198.2.464.49.59.647.127.16.339.443.465.63.13.188.31.485.41.655.096.174.242.467.324.648.082.184.195.464.253.624.055.16.127.372.212.648h-1.554c-1.449 0-1.555-.004-1.575-.062-.014-.03-.082-.211-.157-.399a6.19 6.19 0 00-.769-1.363 6.245 6.245 0 00-.54-.614c-.17-.17-.457-.409-.635-.538a6.058 6.058 0 00-.697-.413 5.923 5.923 0 00-.649-.273c-.15-.047-.379-.109-.512-.136l-.006-.001c-.132-.024-.301-.054-.524-.088v3.887h-.505c-.277 0-.68-.017-.895-.034a11.246 11.246 0 01-1.64-.273 11.054 11.054 0 01-.683-.198c-.16-.054-.41-.15-.557-.208a12.09 12.09 0 01-.546-.245c-.154-.079-.41-.218-.57-.314a9.065 9.065 0 01-.684-.47 10.1 10.1 0 01-.738-.631c-.188-.188-.45-.467-.584-.627-.133-.16-.355-.46-.495-.665a13.11 13.11 0 01-.448-.716 11.872 11.872 0 01-.314-.614c-.068-.15-.185-.419-.256-.596a16.265 16.265 0 01-.267-.75 15.962 15.962 0 01-.242-.853 16.186 16.186 0 01-.188-.886 20.48 20.48 0 01-.157-1.074z" fill="currentColor"/></svg><svg fill="none" viewBox="0 0 27 29" id="youtube" xmlns="http://www.w3.org/2000/svg"><path d="M0 14.5C0 6.492 6.044 0 13.5 0S27 6.492 27 14.5 20.956 29 13.5 29 0 22.508 0 14.5z" fill="#F7F7F7"/><path d="M20.399 10.92c-.166-.684-.654-1.222-1.273-1.405-1.123-.332-5.626-.332-5.626-.332s-4.503 0-5.626.332c-.62.183-1.108.72-1.273 1.404-.301 1.239-.301 3.823-.301 3.823s0 2.584.3 3.822c.166.683.654 1.221 1.274 1.404 1.123.332 5.626.332 5.626.332s4.503 0 5.626-.332c.62-.183 1.107-.72 1.273-1.404.3-1.238.3-3.822.3-3.822s0-2.584-.3-3.823z" fill="currentColor"/><path d="M12.15 17.4v-4.833l3.6 2.416-3.6 2.417z" fill="#F7F7F7"/></svg></svg>